<?xml version="1.0" encoding="utf-8" ?>	<!-- Generator: Assembly 2.4 - http://assemblyapp.co -->	<svg version="1.1" xmlns="http://www.w3.org/2000/svg" xmlns:xlink="http://www.w3.org/1999/xlink" width="900.00" height="600.00" viewBox="0 0 900.0 600.0">		<rect x="0" y="0" width="900.00" height="600.00" fill="#ffffff" />		<g id="document" transform="scale(3.0032826618975905 3.0032826618975905) translate(150.0 99.59883254000901)">			<path d="M150.286,103.527 L150.286,103.527 L-50.1612,103.527 L-50.1612,103.527 L150.286,103.527 Z M150.286,63.4372 L150.286,10.9801 L-87.2628,10.9801 L-87.2628,63.4372 L150.286,63.4372 Z M150.286,-16.7417 L150.286,-69.9346 L-87.2628,-69.9346 L-87.2628,-16.7417 L150.286,-16.7417 Z " fill="#ffffff" fill-opacity="1.00" />			<path d="M150.286,100 L150.286,60.1341 L-150,60.1341 L-150,100 L150.286,100 Z M150.286,20.2683 L150.286,-19.5976 L-150,-19.5976 L-150,20.2683 L150.286,20.2683 Z M150.286,-59.4635 L150.286,-100.447 L-150,-100.447 L-150,-59.4635 L150.286,-59.4635 Z " fill="#d00000" fill-opacity="1.00" />			<path d="M-67.3078,29.7772 L-74.1395,7.27723 L-55.3523,-6.98019 L-78.9662,-7.5 L-86.689,-29.7772 L-94.4117,-7.5 L-118.026,-6.98019 L-99.2385,7.27723 L-106.07,29.7772 L-86.689,16.3366 L-67.3078,29.7772 Z " fill="#ffffff" fill-opacity="1.00" />			<path d="M-150,-99.6647 L22.6909,-4.80394e-06 L-150,99.6647 L-150,-99.6647 Z " fill="#87cefa" fill-opacity="1.00" />			<path d="M-73.2758,27.3427 L-80.6251,3.13775 L-60.4144,-12.2 L-85.8176,-12.2 L-94.1256,-36.7245 L-102.371,-12.2 L-127.837,-12.2 L-107.626,3.13775 L-114.975,27.3427 L-94.1256,12.8836 L-73.2758,27.3427 Z " fill="#ffffff" fill-opacity="1.00" />		</g>	</svg>