<?xml version="1.0" encoding="utf-8"?>
<!-- Generator: Adobe Illustrator 27.2.0, SVG Export Plug-In . SVG Version: 6.00 Build 0)  -->
<svg version="1.1" id="Layer_1" xmlns="http://www.w3.org/2000/svg" xmlns:xlink="http://www.w3.org/1999/xlink" x="0px" y="0px"
	 viewBox="0 0 256 133" style="enable-background:new 0 0 256 133;" xml:space="preserve">
<style type="text/css">
	.st0{fill:#00618A;}
	.st1{fill:#E48E00;}
	.st2{fill-rule:evenodd;clip-rule:evenodd;fill:#00618A;}
	.st3{fill-rule:evenodd;clip-rule:evenodd;fill:#E48E00;}
</style>
<path class="st0" d="M68.4,97.9h3.9V78.6l6.1,16.8c0.7,2,1.7,2.7,3.6,2.7c1.9,0,2.9-0.7,3.6-2.7l6.1-16.8v19.2h3.9V78.7
	c0-1.9-0.6-2.8-1.9-3.2c-3-1.2-5-0.2-5.9,2.3l-6,16.6l-5.8-16.6c-0.9-2.5-2.9-3.5-5.9-2.3c-1.2,0.5-1.9,1.4-1.9,3.2V97.9z
	 M98.9,82.2h3.9v10.6c0,0.6,0.1,1.9,2.3,2c1.1,0,8.5,0,8.5,0V82.2h3.9c0,0,0,17.2,0,17.3c0,4.2-4.2,5.2-6.2,5.2H99v-3.3l12.4,0
	c2.5-0.3,2.2-1.9,2.2-2.4v-1.3h-8.3c-3.9,0-6.4-2.1-6.4-4.6C98.9,92.9,99,82.3,98.9,82.2L98.9,82.2z"/>
<path class="st1" d="M120.6,97.9h11.3c1.3,0,2.6-0.3,3.6-0.9c1.7-1,2.5-2.3,2.5-4v-3.6c0-1.4-0.9-2.7-2.8-3.6
	c-1-0.5-2.2-0.7-3.4-0.7h-4.8c-1.6,0-2.3-0.6-2.5-1.9c0-0.2,0-0.3,0-0.4v-2.2c0-0.1,0-0.3,0-0.4c0.2-1,0.6-1.3,2-1.4
	c0.1,0,0.3,0,0.4,0h11.2v-3.2h-11c-1.6,0-2.4,0.1-3.2,0.4c-2.3,0.9-3.4,2.4-3.4,4.9v2.8c0,2.2,2,4.1,5.4,4.5c0.4,0,0.8,0.1,1.1,0.1
	h4.1c0.2,0,0.3,0,0.4,0c1.2,0.1,1.8,0.4,2.2,1c0.2,0.3,0.3,0.6,0.3,0.9v2.8c0,0.3-0.2,0.8-0.6,1.2c-0.3,0.4-0.9,0.6-1.7,0.7
	c-0.2,0-0.3,0-0.4,0h-10.8L120.6,97.9L120.6,97.9z M162.6,92.2c0,3.3,2,5.2,6,5.6c0.4,0,0.8,0.1,1.1,0.1H180v-3.2h-10.3
	c-2.3,0-3.2-0.7-3.2-2.4V75.4h-3.9L162.6,92.2L162.6,92.2z M140.6,92.4V80.8c0-2.9,1.7-4.7,5-5.3c0.4-0.1,0.7-0.1,1.1-0.1h7.5
	c0.4,0,0.7,0,1.1,0.1c3.3,0.6,5,2.3,5,5.3v11.6c0,2.4-0.7,3.7-2.3,4.5l3.9,4.3h-4.6l-3.1-3.5l-3.2,0.2h-4.2c-0.7,0-1.5-0.1-2.3-0.4
	C141.8,96.7,140.6,95.1,140.6,92.4L140.6,92.4z M144.8,92.1c0,0.2,0,0.3,0.1,0.5c0.2,1.3,1.2,2.1,2.8,2.1h3.6L148,91h4.6l2.9,3.2
	c0.5-0.3,0.9-0.9,1-1.6c0-0.2,0-0.3,0-0.5V81.1c0-0.1,0-0.3,0-0.4c-0.2-1.3-1.2-2-2.8-2h-5.9c-1.7,0-2.9,0.9-2.9,2.4L144.8,92.1
	L144.8,92.1z"/>
<g>
	<path class="st0" d="M183.4,70c-2.4-0.1-4.3,0.2-5.8,1c-0.4,0.2-1.2,0.2-1.2,0.9c0.2,0.3,0.3,0.8,0.5,1.2c0.4,0.8,1,1.8,1.6,2.3
		c0.6,0.6,1.3,1.2,1.9,1.7c1.2,0.9,2.5,1.4,3.6,2.3c0.7,0.5,1.3,1.2,2,1.8c0.3,0.3,0.5,0.8,1,0.9v-0.1c-0.2-0.3-0.3-0.8-0.5-1.2
		l-0.9-1.1c-0.9-1.4-2-2.7-3.2-3.7c-0.9-0.8-3-2-3.4-3.3l-0.1-0.1c0.7-0.1,1.4-0.4,2.1-0.6c1-0.3,2-0.3,3-0.6l1.4-0.5v-0.3
		c-0.5-0.7-0.9-1.6-1.5-2.2c-1.5-1.6-3.2-3.2-4.9-4.6c-1-0.8-2.1-1.2-3.2-1.9c-0.3-0.2-0.9-0.3-1.2-0.7c-0.5-0.8-0.8-1.9-1.2-2.9
		c-0.9-2.1-1.7-4.3-2.5-6.5c-0.5-1.5-0.9-2.9-1.5-4.3c-3.1-6.4-6.5-10.2-11.7-14c-1.1-0.8-2.4-1.1-3.8-1.5l-2.3-0.2
		c-0.5-0.2-0.9-0.9-1.4-1.3c-1.7-1.4-6.1-4.3-7.4-0.4c-0.8,2.4,1.2,4.8,1.9,6c0.5,0.9,1.2,1.8,1.5,2.8c0.2,0.6,0.3,1.3,0.5,2
		c0.5,1.7,0.9,3.5,1.6,5c0.3,0.8,0.7,1.6,1.1,2.3c0.3,0.4,0.7,0.6,0.8,1.3c-0.4,0.7-0.4,1.9-0.7,2.8c-1.1,4.2-0.7,9.4,0.9,12.5
		c0.5,1,1.6,3,3.2,2.2c1.4-0.7,1-2.8,1.4-4.7c0.1-0.4,0-0.7,0.2-1v0.1l1.2,3.1c0.9,1.8,2.5,3.7,3.9,5c0.7,0.7,1.3,1.8,2.2,2.2v-0.1
		h-0.1c-0.2-0.3-0.5-0.5-0.7-0.8c-0.5-0.7-1.1-1.5-1.6-2.2c-1.3-2.1-2.4-4.4-3.4-6.8c-0.5-1.1-0.9-2.4-1.3-3.6
		c-0.2-0.4-0.2-1.1-0.5-1.4c-0.4,0.9-1.1,1.5-1.4,2.6c-0.5,1.6-0.6,3.6-0.8,5.6c-0.1,0.1-0.1,0-0.1,0.1c-1-0.3-1.3-1.5-1.6-2.6
		c-0.9-2.7-1.1-6.9-0.3-10c0.2-0.8,1.1-3.3,0.8-4c-0.2-0.7-0.8-1.2-1.1-1.7c-0.4-0.7-0.8-1.6-1.1-2.4c-0.7-2.1-1.1-4.4-1.9-6.5
		c-0.4-1-1-2-1.5-2.9c-0.6-1-1.2-1.7-1.6-2.9c-0.2-0.4-0.4-1.1-0.1-1.5c0-0.3,0.2-0.5,0.4-0.5c0.4-0.4,1.5,0.1,1.9,0.3
		c1.1,0.6,2,1.1,3,1.9c0.4,0.4,0.9,1.1,1.4,1.3h0.6c1,0.3,2,0.1,3,0.4c1.6,0.6,3,1.5,4.3,2.6c4,3.1,7.2,7.5,9.4,12.8
		c0.4,0.8,0.5,1.7,0.8,2.6c0.6,1.8,1.4,3.7,2.1,5.5c0.6,1.8,1.2,3.6,2.1,5c0.5,0.8,2.3,1.2,3.1,1.6c0.6,0.3,1.5,0.6,2.1,1
		c1,0.8,2,1.7,3,2.6C181.9,68.3,183.3,69.3,183.4,70L183.4,70z"/>
	<path class="st2" d="M152.7,37.5c-0.5,0-0.9,0.1-1.2,0.2v0.1h0.1c0.2,0.6,0.7,1,1,1.5l0.7,1.8l0.1-0.1c0.4-0.4,0.6-1,0.6-1.9
		c-0.2-0.2-0.2-0.5-0.3-0.8C153.4,38,153,37.8,152.7,37.5L152.7,37.5z"/>
</g>
<path class="st3" d="M181.8,94.5c0,2.1,1.4,3.6,2.9,3.6s2.9-1.4,2.9-3.6c0-2.1-1.4-3.6-2.9-3.6S181.8,92.4,181.8,94.5z M186.9,94.5
	c0,1.6-1,2.8-2.2,2.8c-1.3,0-2.2-1.2-2.2-2.8c0-1.6,1-2.8,2.2-2.8C185.9,91.7,186.9,92.9,186.9,94.5z M185.5,96.6h0.6l-0.9-1.8
	c0.5-0.1,0.9-0.4,0.9-1.1c0-0.8-0.4-1.2-1.2-1.2h-1.3v4.1h0.6v-1.8h0.5L185.5,96.6L185.5,96.6z M184.1,94.2v-1.2h0.6
	c0.3,0,0.7,0.1,0.7,0.6c0,0.6-0.4,0.6-0.8,0.6L184.1,94.2L184.1,94.2z"/>
</svg>
